<svg xmlns="http://www.w3.org/2000/svg"  viewBox="0 0 48 48" width="480px" height="480px"><path fill="#cfd8dc" d="M6,6h36v24H6V6z"/><path fill="#424242" d="M42,31H6c-0.552,0-1-0.448-1-1V6c0-0.552,0.448-1,1-1h36c0.552,0,1,0.448,1,1v24 C43,30.552,42.552,31,42,31z M7,29h34V7H7V29z"/><rect width="2" height="12" x="14" y="31" fill="#424242"/><rect width="6" height="2" x="12" y="42" fill="#424242"/><rect width="2" height="12" x="32" y="31" fill="#424242"/><rect width="6" height="2" x="30" y="42" fill="#424242"/><rect width="18" height="2" x="15" y="35" fill="#424242"/><rect width="2" height="3" x="23" y="3" fill="#424242"/><rect width="2" height="2" x="9" y="11" fill="#ff7043" transform="rotate(-180 10 12)"/><rect width="2" height="2" x="9" y="15" fill="#ffee58" transform="rotate(-180 10 16)"/><rect width="2" height="2" x="9" y="19" fill="#9ccc65" transform="rotate(-180 10 20)"/><rect width="2" height="2" x="9" y="23" fill="#29b6f6" transform="rotate(-180 10 24)"/></svg>