<svg fill="#000000" xmlns="http://www.w3.org/2000/svg"  viewBox="0 0 128 128" width="480px" height="480px"><path d="M114,1H24c-7.2,0-13,5.8-13,13v27.6c0,18.6-2.3,37.2-6.8,55.3l-0.6,2.5c-0.9,3.7,0.1,7.5,2.7,10.3c2.1,2.2,5.2,3.4,8.2,3.4 H21v11c0,1.7,1.3,3,3,3h90c7.2,0,13-5.8,13-13V14C127,6.8,121.2,1,114,1z M107,41.7C107,41.7,107,41.7,107,41.7 c0,18.6-2.3,37.1-6.8,55.2l-0.8,3.3c-1,4-4.6,6.8-8.7,6.8H14.2c-1.8,0-3.5-1-4.4-2.6c-0.6-1.1-0.7-2.5-0.4-3.7l0.6-2.3 c4.6-18.5,7-37.6,7-56.7V14c0-3.9,3.1-7,7-7h80c1.7,0,3,1.3,3,3V41.7z"/><path d="M77,65.2c-1.1-0.5-2.2-0.9-3.3-1c-3.9-0.4-6.7,2.3-8.9,4.4c-1.4,1.3-2.8,2.7-3.9,2.8c-1.6,0.2-3.8-2.6-5.6-4.9 c-2.7-3.4-5.8-7.2-10.2-6.6c-2.5,0.3-4.1,2.6-7.2,6.8C37,67.9,36,69.2,35,70.6c-1,1.3-0.8,3.2,0.5,4.2c1.3,1,3.2,0.8,4.2-0.5 c1.1-1.4,2.1-2.8,3-4c1.2-1.6,2.7-3.7,3.4-4.4c1.2,0.3,3.1,2.7,4.5,4.4c2.7,3.3,5.7,7.1,10.1,7.1c0.3,0,0.6,0,0.8,0 c3.1-0.3,5.4-2.5,7.4-4.4c1.5-1.5,3-2.9,4.1-2.8c0.3,0,0.8,0.2,1.2,0.4c1.5,0.7,3.3,0.1,4-1.4C79.1,67.7,78.5,65.9,77,65.2z"/><circle cx="86" cy="74" r="3"/></svg>